<?xml version="1.0" encoding="utf-8"?>
<!-- Generator: Adobe Illustrator 16.0.0, SVG Export Plug-In . SVG Version: 6.00 Build 0)  -->
<!DOCTYPE svg PUBLIC "-//W3C//DTD SVG 1.1//EN" "http://www.w3.org/Graphics/SVG/1.1/DTD/svg11.dtd">
<svg version="1.1" id="Layer_1" xmlns="http://www.w3.org/2000/svg" xmlns:xlink="http://www.w3.org/1999/xlink" x="0px" y="0px"
	 width="768px" height="768px" viewBox="0 0 768 768" enable-background="new 0 0 768 768" xml:space="preserve">
<title></title>
<rect fill="#FF1329" width="100%" height="100%"/>
<g id="icomoon-ignore">
</g>
<path fill="#FFFFFF" d="M384,69c80.952,0,154.432,32.381,206.739,85.934l-37.362,37.363c-43.59-43.59-103.37-69.744-169.377-69.744
	s-125.787,26.154-169.377,69.744l-37.362-37.363C229.568,102.626,303.048,69,384,69z M251.986,229.659
	C285.612,196.033,332.938,174.86,384,174.86c51.062,0,98.388,21.172,132.015,54.798l-37.363,37.363
	c-23.662-23.663-58.534-38.608-94.651-38.608s-70.989,14.945-94.652,38.608L251.986,229.659z M384,467.533
	c28.645,0,53.553-24.908,53.553-53.553S412.645,361.673,384,361.673s-53.553,23.663-53.553,52.308S355.355,467.533,384,467.533z
	 M463.707,308.12c14.944,0,26.153,11.209,26.153,26.154v318.827c0,14.945-11.209,27.399-26.153,27.399H304.293
	c-14.945,0-26.154-12.454-26.154-27.399V334.274c0-14.945,11.208-26.154,26.154-26.154H463.707z"/>
</svg>
